<svg width="50" height="50" viewBox="0 0 50 50" fill="none" xmlns="http://www.w3.org/2000/svg">
    <circle cx="25" cy="25" r="24" fill="#D95182" stroke="black" stroke-width="2" />
    <path
        d="M15.2296 15.2295L15.2294 15.2297C14.6983 15.761 14.3999 16.4815 14.3999 17.2328C14.3999 17.9841 14.6983 18.7046 15.2294 19.2359L15.2295 19.236L21.0046 25.0111L15.2295 30.7861L15.2234 30.7923L15.2173 30.7985C14.7013 31.3329 14.4157 32.0486 14.4221 32.7914C14.4286 33.5343 14.7266 34.2449 15.2519 34.7702C15.7772 35.2955 16.4878 35.5934 17.2306 35.5999C17.9735 35.6063 18.6891 35.3208 19.2235 34.8047L19.2297 34.7986L19.2359 34.7925L25.011 29.0174L30.7861 34.7925L30.7922 34.7986L30.7984 34.8047C31.3328 35.3208 32.0485 35.6063 32.7913 35.5999C33.5342 35.5934 34.2448 35.2955 34.7701 34.7702C35.2954 34.2449 35.5933 33.5343 35.5998 32.7914C35.6063 32.0486 35.3207 31.3329 34.8046 30.7985L34.7986 30.7923L34.7924 30.7861L29.0173 25.0111L34.7924 19.236L34.7986 19.2298L34.8046 19.2236C35.3207 18.6892 35.6063 17.9736 35.5998 17.2307C35.5933 16.4879 35.2954 15.7773 34.7701 15.252C34.2448 14.7267 33.5342 14.4287 32.7913 14.4222C32.0485 14.4158 31.3328 14.7014 30.7984 15.2174L30.7922 15.2235L30.7861 15.2296L25.011 21.0047L19.2359 15.2296L19.2358 15.2295C18.7045 14.6984 17.984 14.4 17.2327 14.4C16.4814 14.4 15.7609 14.6984 15.2296 15.2295Z"
        fill="white" stroke="black" stroke-width="2" />
</svg>
    