<svg width="100%" height="100%" viewBox="0 0 18 19" fill="none" xmlns="http://www.w3.org/2000/svg">
    <path
        d="M0.346297 11.934C0.346297 11.934 -0.394963 11.2542 0.291527 10.5196C0.978017 9.7861 1.71981 10.4664 1.71981 10.4664L5.16077 13.6227C5.10653 13.5722 5.40006 13.1599 5.35645 13.1199L0.580268 8.73926C0.580268 8.73926 -0.160993 8.05945 0.525497 7.32593C1.21252 6.59136 1.95378 7.2717 1.95378 7.2717L6.44601 11.3922C6.43538 11.3827 6.76985 11.0072 6.76347 11.0014L1.5555 6.22433C1.5555 6.22433 0.814238 5.54452 1.50073 4.81048C2.18775 4.07695 2.92901 4.75676 2.92901 4.75676L8.13645 9.53387C8.14283 9.53913 8.49963 9.18422 8.51027 9.19423L3.64262 4.72938C3.64262 4.72938 2.90136 4.04957 3.58785 3.31552C4.27487 2.582 5.01613 3.26181 5.01613 3.26181C5.01613 3.26181 8.63842 6.58451 10.163 7.98257C11.6869 9.38063 12.0305 9.01361 12.0305 9.01361L10.6543 7.75141L9.06489 6.29437C9.06489 6.29437 8.32362 5.61456 9.01065 4.87998C9.69767 4.14594 10.4384 4.82575 10.4384 4.82575L14.5153 8.56549C16.971 10.8182 17.1183 14.6164 14.8429 17.0486C12.5681 19.4809 8.73201 19.6257 6.27585 17.3735C6.1461 17.2545 5.9132 17.0244 5.9233 17.0134L5.90575 17.0334L0.346297 11.934Z"
        fill="#C1694F" />
    <path
        d="M1.88878 10.9078C1.88878 10.9078 1.14752 10.2279 1.83401 9.4939C2.5205 8.75932 3.26176 9.43913 3.26176 9.43913L6.70325 12.5965C6.64848 12.5459 6.94254 12.1336 6.89893 12.0936L2.12275 7.71301C2.12275 7.71301 1.38149 7.0332 2.06798 6.29916C2.75447 5.56511 3.49573 6.24492 3.49573 6.24492L7.98796 10.3659C7.97786 10.3559 8.31233 9.98098 8.30595 9.97519L3.09798 5.19756C3.09798 5.19756 2.35672 4.51827 3.04321 3.78423C3.7297 3.05018 4.47096 3.72999 4.47096 3.72999L9.6784 8.50657C9.68531 8.51288 10.0416 8.15797 10.0522 8.16745L5.1851 3.70261C5.1851 3.70261 4.44384 3.0228 5.13033 2.28927C5.81682 1.55523 6.55808 2.23504 6.55808 2.23504C6.55808 2.23504 10.1809 5.55826 11.7054 6.95632C13.2289 8.35386 13.5729 7.98683 13.5729 7.98683L12.1962 6.72463L10.6074 5.26759C10.6074 5.26759 9.86664 4.58778 10.5526 3.85373C11.2396 3.11969 11.9809 3.7995 11.9809 3.7995L16.0573 7.53872C18.5134 9.79141 18.6602 13.5901 16.3854 16.0219C14.11 18.4541 10.2745 18.5989 7.81833 16.3462C7.68805 16.2278 7.45568 15.9976 7.46578 15.9871L7.4477 16.0071L1.88878 10.9078Z"
        fill="#FFD458" />
    <path
        d="M12.4781 3.59326C12.3648 3.59326 12.2499 3.55745 12.1537 3.48373C11.9208 3.30575 11.8783 2.97506 12.058 2.74495L13.6415 0.714993C13.8202 0.484879 14.1547 0.4417 14.3876 0.62021C14.62 0.797666 14.6625 1.12836 14.4833 1.35847L12.8992 3.38842C12.795 3.5227 12.6376 3.59326 12.4781 3.59326Z"
        fill="#262628" />
    <path
        d="M9.53126 3.87695C9.23774 3.87695 8.99951 3.64105 8.99951 3.35038V0.717493C8.99951 0.426823 9.23774 0.190916 9.53126 0.190916C9.82532 0.190916 10.063 0.426823 10.063 0.717493V3.35038C10.063 3.64105 9.82532 3.87695 9.53126 3.87695Z"
        fill="#262628" />
    <path
        d="M14.5391 5.28174C14.3221 5.28174 14.1179 5.14904 14.0398 4.93472C13.9387 4.66143 14.0818 4.3597 14.3572 4.26018L16.7942 3.38238C17.0713 3.28285 17.3754 3.4245 17.4754 3.69727C17.5764 3.97056 17.4334 4.27282 17.1579 4.37234L14.7209 5.24962C14.6608 5.27121 14.5992 5.28174 14.5391 5.28174Z"
        fill="#262628" />
</svg>
    