<svg width="91" height="103" viewBox="0 0 91 103" fill="none" xmlns="http://www.w3.org/2000/svg">
    <path
        d="M32.5358 96.5962C33.0578 95.9252 34.1127 96.0774 34.4273 96.8691C35.0605 98.4627 36.3124 99.7329 37.8967 100.389L40.919 101.642C41.0733 101.706 41.0486 101.931 40.8842 101.96L36.5768 102.699C35.807 102.831 35.0241 102.871 34.2444 102.818L25.2334 102.208C25.0327 102.195 24.9821 101.922 25.1647 101.839L27.5877 100.726C29.3608 99.9127 30.9113 98.6845 32.1088 97.1451L32.5358 96.5962Z"
        fill="#F09945" />
    <path
        d="M32.5358 96.5962C33.0578 95.9252 34.1127 96.0774 34.4273 96.8691C35.0605 98.4627 36.3124 99.7329 37.8967 100.389L40.919 101.642C41.0733 101.706 41.0486 101.931 40.8842 101.96L36.5768 102.699C35.807 102.831 35.0241 102.871 34.2444 102.818L25.2334 102.208C25.0327 102.195 24.9821 101.922 25.1647 101.839L27.5877 100.726C29.3608 99.9127 30.9113 98.6845 32.1088 97.1451L32.5358 96.5962Z"
        stroke="black" />
    <path
        d="M32.5358 96.5962C33.0578 95.9252 34.1127 96.0774 34.4273 96.8691C35.0605 98.4627 36.3124 99.7329 37.8967 100.389L40.919 101.642C41.0733 101.706 41.0486 101.931 40.8842 101.96L36.5768 102.699C35.807 102.831 35.0241 102.871 34.2444 102.818L25.2334 102.208C25.0327 102.195 24.9821 101.922 25.1647 101.839L27.5877 100.726C29.3608 99.9127 30.9113 98.6845 32.1088 97.1451L32.5358 96.5962Z"
        stroke="black" stroke-opacity="0.2" />
    <path
        d="M57.8796 96.3628C58.4015 95.6918 59.4564 95.844 59.771 96.6357C60.4043 98.2293 61.6562 99.4995 63.2404 100.156L66.2628 101.408C66.4171 101.472 66.3923 101.698 66.2279 101.726L61.9205 102.466C61.1508 102.598 60.3678 102.638 59.5881 102.585L50.5771 101.975C50.3765 101.961 50.3259 101.689 50.5085 101.605L52.9315 100.493C54.7045 99.6793 56.2551 98.4511 57.4526 96.9117L57.8796 96.3628Z"
        fill="#F09945" />
    <path
        d="M57.8796 96.3628C58.4015 95.6918 59.4564 95.844 59.771 96.6357C60.4043 98.2293 61.6562 99.4995 63.2404 100.156L66.2628 101.408C66.4171 101.472 66.3923 101.698 66.2279 101.726L61.9205 102.466C61.1508 102.598 60.3678 102.638 59.5881 102.585L50.5771 101.975C50.3765 101.961 50.3259 101.689 50.5085 101.605L52.9315 100.493C54.7045 99.6793 56.2551 98.4511 57.4526 96.9117L57.8796 96.3628Z"
        stroke="black" />
    <path
        d="M57.8796 96.3628C58.4015 95.6918 59.4564 95.844 59.771 96.6357C60.4043 98.2293 61.6562 99.4995 63.2404 100.156L66.2628 101.408C66.4171 101.472 66.3923 101.698 66.2279 101.726L61.9205 102.466C61.1508 102.598 60.3678 102.638 59.5881 102.585L50.5771 101.975C50.3765 101.961 50.3259 101.689 50.5085 101.605L52.9315 100.493C54.7045 99.6793 56.2551 98.4511 57.4526 96.9117L57.8796 96.3628Z"
        stroke="black" stroke-opacity="0.2" />
    <path fill-rule="evenodd" clip-rule="evenodd"
        d="M26.7038 67.8109L19.4248 71.306C12.726 74.5226 4.2223 71.9489 0.431325 65.5576C-0.472058 64.0345 0.0896785 62.1785 1.686 61.412L34.1423 45.8276C34.3251 38.7466 42.1448 34.4662 48.2276 38.2183L50.1783 39.4215C51.4788 40.2237 52.5889 41.2996 53.4313 42.5744L57.417 48.6055C57.4721 48.5211 57.5281 48.437 57.585 48.3531L89.4274 66.0989C90.9742 66.961 91.4222 68.8477 90.428 70.3131C86.2558 76.4624 77.6115 78.5148 71.1204 74.8973L68.7404 73.5709C70.4465 78.3316 70.2851 83.5803 68.2593 88.2465C65.6099 94.3491 59.5915 98.2975 52.9386 98.2975H37.9683C30.8606 98.2975 24.7676 93.2198 23.4861 86.2286C22.7807 82.3801 23.0754 78.4149 24.3421 74.713L26.7038 67.8109Z"
        fill="#3A3D40" />
    <g filter="url(#filter0_i_923_761)">
        <path
            d="M57.2992 47.8636C64.8698 64.7111 75.9316 91.1462 58.5428 97.3733C55.3894 98.5026 51.7045 98.2515 46.4995 98.2515C41.6939 98.2515 38.1433 98.7441 35.1119 98.2527C17.0635 95.327 28.0527 67.1475 35.2542 50.3414C38.8029 42.0598 38.1856 39.0732 46.4995 39.0732C54.4474 39.0732 54.2332 41.0406 57.2992 47.8636Z"
            fill="#F9F8FB" />
        <path
            d="M57.2992 47.8636C64.8698 64.7111 75.9316 91.1462 58.5428 97.3733C55.3894 98.5026 51.7045 98.2515 46.4995 98.2515C41.6939 98.2515 38.1433 98.7441 35.1119 98.2527C17.0635 95.327 28.0527 67.1475 35.2542 50.3414C38.8029 42.0598 38.1856 39.0732 46.4995 39.0732C54.4474 39.0732 54.2332 41.0406 57.2992 47.8636Z"
            fill="black" fill-opacity="0.04" />
    </g>
    <path
        d="M49.4313 51.5815V51.5815C49.8115 51.4573 50.2151 51.5867 50.4293 51.9015L51.0068 52.7501C51.1864 53.0139 51.237 53.3485 51.1457 53.6675V53.6675"
        stroke="url(#paint0_linear_923_761)" stroke-width="1.39145" stroke-linecap="round" />
    <path
        d="M42.0514 51.4077V51.4077C42.4316 51.2835 42.8352 51.4129 43.0494 51.7277L43.627 52.5762C43.8065 52.84 43.8571 53.1747 43.7658 53.4937V53.4937"
        stroke="url(#paint1_linear_923_761)" stroke-width="1.39145" stroke-linecap="round" />
    <path
        d="M39.715 56.1049V56.1049C40.0952 55.9807 40.4988 56.1102 40.713 56.425L41.2905 57.2735C41.4701 57.5373 41.5207 57.8719 41.4294 58.1909V58.1909"
        stroke="url(#paint2_linear_923_761)" stroke-width="1.39145" stroke-linecap="round" />
    <path
        d="M53.3639 55.5834V55.5834C53.7441 55.4593 54.1477 55.5887 54.3619 55.9035L54.9395 56.752C55.119 57.0158 55.1696 57.3505 55.0783 57.6695V57.6695"
        stroke="url(#paint3_linear_923_761)" stroke-width="1.39145" stroke-linecap="round" />
    <path
        d="M45.9841 55.4086V55.4086C46.3642 55.2845 46.7678 55.4139 46.9821 55.7287L47.5596 56.5772C47.7391 56.841 47.7898 57.1757 47.6984 57.4946V57.4946"
        stroke="url(#paint4_linear_923_761)" stroke-width="1.39145" stroke-linecap="round" />
    <path
        d="M43.6331 17.7593C43.2774 23.2316 42.3837 27.6284 37.7864 27.3295C33.1892 27.0307 30.2957 20.3976 30.6514 14.9254C31.0072 9.45313 49.5063 3.51723 54.1036 3.81607C55.2224 3.8888 55.7967 3.92613 55.8742 4.14196C56.1154 4.81298 51.5554 7.20938 43.6331 17.7593Z"
        fill="#3A3D40" />
    <path
        d="M43.6331 17.7593C43.2774 23.2316 42.3837 27.6284 37.7864 27.3295C33.1892 27.0307 30.2957 20.3976 30.6514 14.9254C31.0072 9.45313 49.5063 3.51723 54.1036 3.81607C55.2224 3.8888 55.7967 3.92613 55.8742 4.14196C56.1154 4.81298 51.5554 7.20938 43.6331 17.7593Z"
        stroke="black" />
    <path
        d="M53.7879 18.4175C53.4322 23.8898 52.5385 28.2866 47.9412 27.9877C43.3439 27.6889 40.4505 21.0558 40.8062 15.5836C41.1619 10.1113 59.6611 4.17543 64.2584 4.47428C65.3772 4.54701 65.9515 4.58434 66.029 4.80016C66.2702 5.47118 61.7102 7.86759 53.7879 18.4175Z"
        fill="#3A3D40" />
    <path
        d="M53.7879 18.4175C53.4322 23.8898 52.5385 28.2866 47.9412 27.9877C43.3439 27.6889 40.4505 21.0558 40.8062 15.5836C41.1619 10.1113 59.6611 4.17543 64.2584 4.47428C65.3772 4.54701 65.9515 4.58434 66.029 4.80016C66.2702 5.47118 61.7102 7.86759 53.7879 18.4175Z"
        stroke="black" />
    <path
        d="M25.9614 20.5581C28.853 11.8015 38.0456 6.79328 46.9711 9.11196L47.2387 9.18147C49.2591 9.70634 51.3623 9.83295 53.4311 9.55425C62.0962 8.38692 70.107 14.3543 71.469 22.9908L71.7504 24.7752C71.9262 25.8899 71.9964 27.0188 71.9601 28.1467L71.9498 28.4648C71.5781 39.9963 62.0922 49.1352 50.5548 49.077L45.7631 49.0529C33.24 48.9897 23.5021 38.1398 24.7881 25.6829L24.8177 25.3963C24.955 24.0669 25.2355 22.7563 25.6546 21.4873L25.9614 20.5581Z"
        fill="#3A3D40" />
    <path
        d="M26.5572 21.531C27.6021 13.6408 37.6486 10.9288 42.522 17.2214L42.7176 17.4739C45.979 21.685 52.2275 21.9954 55.8902 18.1284C61.2109 12.511 70.6672 16.1299 70.8781 23.8643L71.0712 30.9455L70.6002 38.1905C70.4329 40.764 69.0407 43.1008 66.8573 44.4732C54.9018 51.9875 39.4927 51.0748 28.5079 42.2017L28.2491 41.9926C26.1889 40.3285 25.0658 37.7671 25.2376 35.1243L25.701 27.9962L26.5572 21.531Z"
        fill="#F9F8FB" />
    <path
        d="M26.5572 21.531C27.6021 13.6408 37.6486 10.9288 42.522 17.2214L42.7176 17.4739C45.979 21.685 52.2275 21.9954 55.8902 18.1284C61.2109 12.511 70.6672 16.1299 70.8781 23.8643L71.0712 30.9455L70.6002 38.1905C70.4329 40.764 69.0407 43.1008 66.8573 44.4732C54.9018 51.9875 39.4927 51.0748 28.5079 42.2017L28.2491 41.9926C26.1889 40.3285 25.0658 37.7671 25.2376 35.1243L25.701 27.9962L26.5572 21.531Z"
        fill="black" fill-opacity="0.02" />
    <g filter="url(#filter1_d_923_761)">
        <path
            d="M45.1471 44.5037C46.5234 45.1209 48.0762 45.2364 49.5372 44.8302C51.1171 44.391 52.4435 43.3065 53.189 41.8441L54.2949 39.675C54.3224 39.6209 54.2862 39.5567 54.2258 39.5528L52.6964 39.4534C52.679 39.4522 52.6624 39.4609 52.6533 39.4759L52.5756 39.6041C50.2602 43.4257 44.6188 43.0862 42.8447 39.0185L42.7525 38.807L41.3197 38.7138C41.3165 38.7136 41.314 38.7168 41.3151 38.7199L42.3015 41.4938C42.7703 42.8123 43.7556 43.8797 45.0322 44.4522L45.1471 44.5037Z"
            fill="#F09945" />
        <path
            d="M45.1471 44.5037C46.5234 45.1209 48.0762 45.2364 49.5372 44.8302C51.1171 44.391 52.4435 43.3065 53.189 41.8441L54.2949 39.675C54.3224 39.6209 54.2862 39.5567 54.2258 39.5528L52.6964 39.4534C52.679 39.4522 52.6624 39.4609 52.6533 39.4759L52.5756 39.6041C50.2602 43.4257 44.6188 43.0862 42.8447 39.0185L42.7525 38.807L41.3197 38.7138C41.3165 38.7136 41.314 38.7168 41.3151 38.7199L42.3015 41.4938C42.7703 42.8123 43.7556 43.8797 45.0322 44.4522L45.1471 44.5037Z"
            stroke="black" />
        <path
            d="M45.1471 44.5037C46.5234 45.1209 48.0762 45.2364 49.5372 44.8302C51.1171 44.391 52.4435 43.3065 53.189 41.8441L54.2949 39.675C54.3224 39.6209 54.2862 39.5567 54.2258 39.5528L52.6964 39.4534C52.679 39.4522 52.6624 39.4609 52.6533 39.4759L52.5756 39.6041C50.2602 43.4257 44.6188 43.0862 42.8447 39.0185L42.7525 38.807L41.3197 38.7138C41.3165 38.7136 41.314 38.7168 41.3151 38.7199L42.3015 41.4938C42.7703 42.8123 43.7556 43.8797 45.0322 44.4522L45.1471 44.5037Z"
            stroke="black" stroke-opacity="0.2" />
        <path
            d="M41.9389 38.9977L47.6927 39.0465L53.551 39.4273C52.4771 41.3487 50.5179 42.6101 48.3243 42.7927L48.1809 42.8046C47.6918 42.8453 47.1995 42.8249 46.7154 42.7437C45.156 42.4821 43.7668 41.6057 42.8593 40.3109L41.9389 38.9977Z"
            fill="#269989" />
        <path
            d="M41.9389 38.9977L47.6927 39.0465L53.551 39.4273C52.4771 41.3487 50.5179 42.6101 48.3243 42.7927L48.1809 42.8046C47.6918 42.8453 47.1995 42.8249 46.7154 42.7437C45.156 42.4821 43.7668 41.6057 42.8593 40.3109L41.9389 38.9977Z"
            fill="#F7685B" fill-opacity="0.9" />
        <path
            d="M41.9389 38.9977L47.6927 39.0465L53.551 39.4273C52.4771 41.3487 50.5179 42.6101 48.3243 42.7927L48.1809 42.8046C47.6918 42.8453 47.1995 42.8249 46.7154 42.7437C45.156 42.4821 43.7668 41.6057 42.8593 40.3109L41.9389 38.9977Z"
            fill="black" fill-opacity="0.4" />
        <path
            d="M46.923 35.0439C47.4675 34.5472 48.3234 34.6306 48.7659 35.2236C49.3983 36.0711 50.2092 36.7695 51.1407 37.269L53.6568 38.6181C54.0398 38.8235 54.268 39.2339 54.2398 39.667C54.239 39.6785 54.229 39.6873 54.2175 39.6866L47.6095 39.2573L41.2641 39.0303C41.2633 39.0302 41.2627 39.0297 41.2624 39.029C41.1644 38.6784 41.3306 38.3089 41.6574 38.151L45.4016 36.342C45.5409 36.2747 45.6696 36.1876 45.7838 36.0834L46.923 35.0439Z"
            fill="#F09945" />
        <path
            d="M46.923 35.0439C47.4675 34.5472 48.3234 34.6306 48.7659 35.2236C49.3983 36.0711 50.2092 36.7695 51.1407 37.269L53.6568 38.6181C54.0398 38.8235 54.268 39.2339 54.2398 39.667C54.239 39.6785 54.229 39.6873 54.2175 39.6866L47.6095 39.2573L41.2641 39.0303C41.2633 39.0302 41.2627 39.0297 41.2624 39.029C41.1644 38.6784 41.3306 38.3089 41.6574 38.151L45.4016 36.342C45.5409 36.2747 45.6696 36.1876 45.7838 36.0834L46.923 35.0439Z"
            stroke="black" />
        <path
            d="M46.923 35.0439C47.4675 34.5472 48.3234 34.6306 48.7659 35.2236C49.3983 36.0711 50.2092 36.7695 51.1407 37.269L53.6568 38.6181C54.0398 38.8235 54.268 39.2339 54.2398 39.667C54.239 39.6785 54.229 39.6873 54.2175 39.6866L47.6095 39.2573L41.2641 39.0303C41.2633 39.0302 41.2627 39.0297 41.2624 39.029C41.1644 38.6784 41.3306 38.3089 41.6574 38.151L45.4016 36.342C45.5409 36.2747 45.6696 36.1876 45.7838 36.0834L46.923 35.0439Z"
            stroke="black" stroke-opacity="0.2" />
    </g>
    <path
        d="M44.542 41.8811C45.0112 40.9224 46.1432 40.4915 47.1311 40.8954L50.4871 42.2676L50.4218 42.2973C49.7364 42.6089 49.0038 42.8044 48.2542 42.8758L47.7962 42.9194C47.2591 42.9705 46.7172 42.9212 46.1981 42.7738L46.1098 42.7487C45.5277 42.5834 44.9912 42.2866 44.542 41.8811Z"
        fill="#FF7D6C" />
    <path
        d="M36.7768 16.0533L36.6297 16.0407C34.7323 15.8782 32.7961 16.2709 31.0319 17.1761V17.1761"
        stroke="black" stroke-width="0.76625" stroke-linecap="round" />
    <ellipse cx="62.2035" cy="31.1007" rx="7.96834" ry="10.0483"
        transform="rotate(3.71928 62.2035 31.1007)" fill="white" />
    <ellipse cx="62.2035" cy="31.1007" rx="7.96834" ry="10.0483"
        transform="rotate(3.71928 62.2035 31.1007)" fill="white" />
    <ellipse cx="62.2035" cy="31.1007" rx="7.96834" ry="10.0483"
        transform="rotate(3.71928 62.2035 31.1007)" fill="white" />
    <ellipse cx="62.3481" cy="31.3362" rx="7.21918" ry="9.36318"
        transform="rotate(3.71928 62.3481 31.3362)" fill="white" />
    <ellipse cx="62.3481" cy="31.3362" rx="7.21918" ry="9.36318"
        transform="rotate(3.71928 62.3481 31.3362)" fill="white" />
    <ellipse cx="62.3481" cy="31.3362" rx="7.21918" ry="9.36318"
        transform="rotate(3.71928 62.3481 31.3362)" fill="#72CEBC" />
    <ellipse cx="61.9365" cy="30.9305" rx="4.3182" ry="5.60066"
        transform="rotate(3.71928 61.9365 30.9305)" fill="white" />
    <ellipse cx="61.9365" cy="30.9305" rx="4.3182" ry="5.60066"
        transform="rotate(3.71928 61.9365 30.9305)" fill="white" />
    <ellipse cx="61.9365" cy="30.9305" rx="4.3182" ry="5.60066"
        transform="rotate(3.71928 61.9365 30.9305)" fill="#907375" />
    <ellipse cx="61.9365" cy="30.9305" rx="4.3182" ry="5.60066"
        transform="rotate(3.71928 61.9365 30.9305)" fill="black" />
    <ellipse cx="61.9365" cy="30.9305" rx="4.3182" ry="5.60066"
        transform="rotate(3.71928 61.9365 30.9305)" fill="black" fill-opacity="0.2" />
    <ellipse cx="63.3587" cy="28.2587" rx="2.22556" ry="2.84294"
        transform="rotate(3.71928 63.3587 28.2587)" fill="white" />
    <ellipse cx="63.3587" cy="28.2587" rx="2.22556" ry="2.84294"
        transform="rotate(3.71928 63.3587 28.2587)" fill="white" />
    <ellipse cx="63.3587" cy="28.2587" rx="2.22556" ry="2.84294"
        transform="rotate(3.71928 63.3587 28.2587)" fill="#907375" />
    <ellipse cx="63.3587" cy="28.2587" rx="2.22556" ry="2.84294"
        transform="rotate(3.71928 63.3587 28.2587)" fill="#FDFCFF" />
    <ellipse cx="63.3587" cy="28.2587" rx="2.22556" ry="2.84294"
        transform="rotate(3.71928 63.3587 28.2587)" fill="#FDFCFF" />
    <path
        d="M69.8752 34.9882C69.2295 38.6133 66.1734 41.3698 62.5205 41.622C58.5307 41.8974 55.0556 39.1139 54.4652 35.1696L54.4181 34.8552C59.436 36.1572 64.7572 35.9917 69.7614 34.3779L69.9975 34.3018L69.8752 34.9882Z"
        fill="#F4F3F6" />
    <ellipse cx="34.3998" cy="29.295" rx="7.96834" ry="10.0483"
        transform="rotate(3.71928 34.3998 29.295)" fill="white" />
    <ellipse cx="34.3998" cy="29.295" rx="7.96834" ry="10.0483"
        transform="rotate(3.71928 34.3998 29.295)" fill="white" />
    <ellipse cx="34.3998" cy="29.295" rx="7.96834" ry="10.0483"
        transform="rotate(3.71928 34.3998 29.295)" fill="white" />
    <ellipse cx="34.5448" cy="29.5295" rx="7.21918" ry="9.36318"
        transform="rotate(3.71928 34.5448 29.5295)" fill="white" />
    <ellipse cx="34.5448" cy="29.5295" rx="7.21918" ry="9.36318"
        transform="rotate(3.71928 34.5448 29.5295)" fill="white" />
    <ellipse cx="34.5448" cy="29.5295" rx="7.21918" ry="9.36318"
        transform="rotate(3.71928 34.5448 29.5295)" fill="#72CEBC" />
    <ellipse cx="34.5845" cy="29.5106" rx="4.3182" ry="5.60066"
        transform="rotate(3.71928 34.5845 29.5106)" fill="white" />
    <ellipse cx="34.5845" cy="29.5106" rx="4.3182" ry="5.60066"
        transform="rotate(3.71928 34.5845 29.5106)" fill="white" />
    <ellipse cx="34.5845" cy="29.5106" rx="4.3182" ry="5.60066"
        transform="rotate(3.71928 34.5845 29.5106)" fill="#907375" />
    <ellipse cx="34.5845" cy="29.5106" rx="4.3182" ry="5.60066"
        transform="rotate(3.71928 34.5845 29.5106)" fill="black" />
    <ellipse cx="34.5845" cy="29.5106" rx="4.3182" ry="5.60066"
        transform="rotate(3.71928 34.5845 29.5106)" fill="black" fill-opacity="0.2" />
    <ellipse cx="36.0076" cy="26.8387" rx="2.22556" ry="2.84294"
        transform="rotate(3.71928 36.0076 26.8387)" fill="white" />
    <ellipse cx="36.0076" cy="26.8387" rx="2.22556" ry="2.84294"
        transform="rotate(3.71928 36.0076 26.8387)" fill="white" />
    <ellipse cx="36.0076" cy="26.8387" rx="2.22556" ry="2.84294"
        transform="rotate(3.71928 36.0076 26.8387)" fill="#907375" />
    <ellipse cx="36.0076" cy="26.8387" rx="2.22556" ry="2.84294"
        transform="rotate(3.71928 36.0076 26.8387)" fill="#FDFCFF" />
    <ellipse cx="36.0076" cy="26.8387" rx="2.22556" ry="2.84294"
        transform="rotate(3.71928 36.0076 26.8387)" fill="#FDFCFF" />
    <path
        d="M26.8409 33.1225C27.1631 36.9821 30.3526 40.0231 34.182 40.122C37.172 40.1992 39.8676 38.4465 41.0067 35.6846L41.7096 33.9801C36.7254 34.949 31.5258 34.2809 26.8654 32.0728L26.7486 32.0174L26.8409 33.1225Z"
        fill="#F4F3F6" />
    <path
        d="M68.1649 19.5427L68.0177 19.4554C66.3585 18.472 64.4544 17.9786 62.5259 18.0323V18.0323"
        stroke="black" stroke-width="0.76625" stroke-linecap="round" />
    <rect width="1.64447" height="0.863131" rx="0.431565"
        transform="matrix(0.780676 0.624937 -0.543919 0.839138 49.5981 36.8252)" fill="#FDFCFF" />
    <circle cx="63.0525" cy="30.532" r="9.16659" transform="rotate(3.20518 63.0525 30.532)"
        fill="#FDFCFF" fill-opacity="0.2" />
    <circle cx="63.0525" cy="30.532" r="9.16659" transform="rotate(3.20518 63.0525 30.532)"
        stroke="#67A397" stroke-width="1.28204" />
    <circle cx="63.0525" cy="30.532" r="9.16659" transform="rotate(3.20518 63.0525 30.532)"
        stroke="#67A397" stroke-width="1.28204" />
    <circle cx="33.4695" cy="29.1307" r="9.16659" transform="rotate(3.20518 33.4695 29.1307)"
        fill="#FDFCFF" fill-opacity="0.2" />
    <circle cx="33.4695" cy="29.1307" r="9.16659" transform="rotate(3.20518 33.4695 29.1307)"
        stroke="#67A397" stroke-width="1.28204" />
    <circle cx="33.4695" cy="29.1307" r="9.16659" transform="rotate(3.20518 33.4695 29.1307)"
        stroke="#67A397" stroke-width="1.28204" />
    <path
        d="M42.6604 31.2495V31.2495C46.3164 30.4052 50.1358 30.6017 53.6858 31.8168L53.8607 31.8767"
        stroke="#67A397" stroke-width="1.4423" />
    <defs>
        <filter id="filter0_i_923_761" x="25.291" y="38.7254" width="42.8576" height="59.7453"
            filterUnits="userSpaceOnUse" color-interpolation-filters="sRGB">
            <feFlood flood-opacity="0" result="BackgroundImageFix" />
            <feBlend mode="normal" in="SourceGraphic" in2="BackgroundImageFix" result="shape" />
            <feColorMatrix in="SourceAlpha" type="matrix"
                values="0 0 0 0 0 0 0 0 0 0 0 0 0 0 0 0 0 0 127 0" result="hardAlpha" />
            <feOffset dx="0.521794" dy="-0.521794" />
            <feGaussianBlur stdDeviation="0.173931" />
            <feComposite in2="hardAlpha" operator="arithmetic" k2="-1" k3="1" />
            <feColorMatrix type="matrix"
                values="0 0 0 0 0.227451 0 0 0 0 0.239216 0 0 0 0 0.25098 0 0 0 1 0" />
            <feBlend mode="normal" in2="shape" result="effect1_innerShadow_923_761" />
        </filter>
        <filter id="filter1_d_923_761" x="39.7985" y="34.0008" width="15.9415" height="13.2213"
            filterUnits="userSpaceOnUse" color-interpolation-filters="sRGB">
            <feFlood flood-opacity="0" result="BackgroundImageFix" />
            <feColorMatrix in="SourceAlpha" type="matrix"
                values="0 0 0 0 0 0 0 0 0 0 0 0 0 0 0 0 0 0 127 0" result="hardAlpha" />
            <feOffset dy="0.717919" />
            <feGaussianBlur stdDeviation="0.717919" />
            <feComposite in2="hardAlpha" operator="out" />
            <feColorMatrix type="matrix"
                values="0 0 0 0 0.992157 0 0 0 0 0.988235 0 0 0 0 1 0 0 0 0.44 0" />
            <feBlend mode="normal" in2="BackgroundImageFix" result="effect1_dropShadow_923_761" />
            <feBlend mode="normal" in="SourceGraphic" in2="effect1_dropShadow_923_761"
                result="shape" />
        </filter>
        <linearGradient id="paint0_linear_923_761" x1="51.6499" y1="52.6432" x2="49.3665"
            y2="52.4784" gradientUnits="userSpaceOnUse">
            <stop stop-color="#A5A3A3" />
            <stop offset="1" stop-color="#C4C4C4" stop-opacity="0" />
        </linearGradient>
        <linearGradient id="paint1_linear_923_761" x1="44.27" y1="52.4694" x2="41.9866" y2="52.3046"
            gradientUnits="userSpaceOnUse">
            <stop stop-color="#A5A3A3" />
            <stop offset="1" stop-color="#C4C4C4" stop-opacity="0" />
        </linearGradient>
        <linearGradient id="paint2_linear_923_761" x1="41.9336" y1="57.1666" x2="39.6502"
            y2="57.0018" gradientUnits="userSpaceOnUse">
            <stop stop-color="#A5A3A3" />
            <stop offset="1" stop-color="#C4C4C4" stop-opacity="0" />
        </linearGradient>
        <linearGradient id="paint3_linear_923_761" x1="55.5825" y1="56.6452" x2="53.2991"
            y2="56.4804" gradientUnits="userSpaceOnUse">
            <stop stop-color="#A5A3A3" />
            <stop offset="1" stop-color="#C4C4C4" stop-opacity="0" />
        </linearGradient>
        <linearGradient id="paint4_linear_923_761" x1="48.2026" y1="56.4703" x2="45.9193"
            y2="56.3055" gradientUnits="userSpaceOnUse">
            <stop stop-color="#A5A3A3" />
            <stop offset="1" stop-color="#C4C4C4" stop-opacity="0" />
        </linearGradient>
    </defs>
</svg>
    