<svg width="34" height="48" viewBox="0 0 34 48" fill="none" xmlns="http://www.w3.org/2000/svg">
    <path d="M21.2675 44.6431C21.5134 44.4302 21.8867 44.4259 22.1414 44.6388L22.7166 45.1124L23.472 45.8077C23.6213 45.9468 23.5247 46.1901 23.3226 46.1901L22.3829 46.1944L21.2148 46.7941C20.9908 46.9071 20.7317 46.7115 20.7844 46.4639L20.8459 46.1944L18.8522 46.1901C18.7293 46.1901 18.6941 46.025 18.8039 45.9772L19.893 45.5035C20.3936 45.2863 20.8591 44.9951 21.2675 44.6431Z" fill="#F09945"/>
    <path d="M22.3829 46.0989H22.361L22.3434 46.1076L21.1753 46.7072C21.0216 46.7854 20.8416 46.6507 20.8767 46.4813L20.9382 46.2118L20.9645 46.0989H20.8504L18.8567 46.0945C18.8479 46.0945 18.8435 46.0902 18.8435 46.0902C18.8391 46.0902 18.8391 46.0858 18.8391 46.0771C18.8391 46.0728 18.8391 46.0684 18.8391 46.0641C18.8391 46.0641 18.8435 46.0598 18.8479 46.0554L19.937 45.5818C20.4464 45.3601 20.9162 45.0647 21.3334 44.7083C21.5486 44.5258 21.8648 44.5215 22.0843 44.704L22.6596 45.1776L23.4149 45.8686C23.5027 45.9511 23.4456 46.0945 23.3271 46.0945L22.3829 46.0989Z" stroke="#704E2E" stroke-width="0.396121"/>
    <path d="M22.3829 46.0989H22.361L22.3434 46.1076L21.1753 46.7072C21.0216 46.7854 20.8416 46.6507 20.8767 46.4813L20.9382 46.2118L20.9645 46.0989H20.8504L18.8567 46.0945C18.8479 46.0945 18.8435 46.0902 18.8435 46.0902C18.8391 46.0902 18.8391 46.0858 18.8391 46.0771C18.8391 46.0728 18.8391 46.0684 18.8391 46.0641C18.8391 46.0641 18.8435 46.0598 18.8479 46.0554L19.937 45.5818C20.4464 45.3601 20.9162 45.0647 21.3334 44.7083C21.5486 44.5258 21.8648 44.5215 22.0843 44.704L22.6596 45.1776L23.4149 45.8686C23.5027 45.9511 23.4456 46.0945 23.3271 46.0945L22.3829 46.0989Z" stroke="black" stroke-opacity="0.2" stroke-width="0.396121"/>
    <path d="M11.3782 44.8126C11.6769 44.5563 12.1204 44.5519 12.4278 44.804L12.9152 45.2037L13.8857 45.9338C14.0482 46.0554 13.9735 46.3161 13.7715 46.3292L12.6781 46.4161L11.3168 46.9766C11.0752 47.0766 10.8293 46.8376 10.9215 46.5986L11.0445 46.2857L9.67439 46.1249C9.569 46.1119 9.54265 45.9729 9.63487 45.9251L10.2277 45.6035C10.6405 45.3819 11.0269 45.1168 11.3782 44.8126Z" fill="#F09945"/>
    <path d="M12.8582 45.2733L13.8331 46.0076C13.9297 46.0815 13.8858 46.2292 13.7673 46.2423L12.6738 46.3292H12.6606L12.6475 46.3335L11.2861 46.8941C11.1193 46.9636 10.948 46.7985 11.0139 46.6334L11.1368 46.3205L11.1807 46.2119L11.0622 46.1988L9.69207 46.038C9.68768 46.038 9.68329 46.0337 9.68329 46.0337C9.68329 46.0337 9.67889 46.0294 9.67889 46.025C9.67889 46.0207 9.67889 46.0163 9.67889 46.0163C9.67889 46.0163 9.67889 46.012 9.68767 46.0076L10.2805 45.6861C10.6977 45.4601 11.0885 45.1907 11.4486 44.8822C11.7121 44.6562 12.1073 44.6519 12.3796 44.8778L12.8582 45.2733Z" stroke="#704E2E" stroke-width="0.396121"/>
    <path d="M12.8582 45.2733L13.8331 46.0076C13.9297 46.0815 13.8858 46.2292 13.7673 46.2423L12.6738 46.3292H12.6606L12.6475 46.3335L11.2861 46.8941C11.1193 46.9636 10.948 46.7985 11.0139 46.6334L11.1368 46.3205L11.1807 46.2119L11.0622 46.1988L9.69207 46.038C9.68768 46.038 9.68329 46.0337 9.68329 46.0337C9.68329 46.0337 9.67889 46.0294 9.67889 46.025C9.67889 46.0207 9.67889 46.0163 9.67889 46.0163C9.67889 46.0163 9.67889 46.012 9.68767 46.0076L10.2805 45.6861C10.6977 45.4601 11.0885 45.1907 11.4486 44.8822C11.7121 44.6562 12.1073 44.6519 12.3796 44.8778L12.8582 45.2733Z" stroke="black" stroke-opacity="0.2" stroke-width="0.396121"/>
    <path d="M10.2276 32.0851H23.7135C23.9902 35.2919 23.8453 38.5206 23.2744 41.6883L22.7035 44.8735C21.9877 45.0126 21.25 45.0126 20.5342 44.8735C19.0982 42.5227 18.0662 39.9458 17.4866 37.2604L17.4119 36.9171H16.6698C16.5468 36.9171 16.4326 36.9953 16.3887 37.1083L13.5431 44.5911L13.1216 44.8387C12.3662 45.282 11.4089 45.182 10.7634 44.5911L10.7195 44.3347C10.1618 41.0539 9.95977 37.7254 10.1135 34.4055L10.2276 32.0851Z" fill="#B287A3" stroke="#9E7A93" stroke-width="0.24965" stroke-miterlimit="10"/>
    <path d="M23.1294 41.6623L22.5761 44.7475C21.9305 44.8605 21.2718 44.8605 20.6263 44.7432C19.2167 42.4184 18.2023 39.8807 17.6314 37.23L17.5567 36.8867L17.5304 36.7694H17.4118H16.6697C16.4852 36.7694 16.3184 36.8824 16.2525 37.0562L13.4245 44.4911L13.0468 44.7127C12.3618 45.1125 11.4967 45.0343 10.9038 44.5172L10.8687 44.313C10.311 41.0453 10.109 37.7254 10.2671 34.4142L10.3681 32.2328H23.5729C23.8364 35.3832 23.6827 38.551 23.1294 41.6623Z" fill="#B287A3" stroke="#9E7A93" stroke-width="0.640584"/>
    <path d="M13.1785 14.3255L21.004 14.1256L21.206 21.3085L20.8195 21.5084C19.3528 22.2645 18.0749 23.3378 17.0781 24.6501L16.7663 24.2547C15.3918 22.4948 13.8548 20.8609 12.1729 19.3835C12.1729 18.1407 12.3617 16.9066 12.735 15.7203L13.1785 14.3255Z" fill="white"/>
    <path d="M13.1785 14.3255L21.004 14.1256L21.206 21.3085L20.8195 21.5084C19.3528 22.2645 18.0749 23.3378 17.0781 24.6501L16.7663 24.2547C15.3918 22.4948 13.8548 20.8609 12.1729 19.3835C12.1729 18.1407 12.3617 16.9066 12.735 15.7203L13.1785 14.3255Z" fill="black" fill-opacity="0.1"/>
    <path d="M29.8395 25.2672L32.9793 32.0025C33.0803 32.2198 33.0101 32.4761 32.8081 32.6108C30.6783 34.0448 27.7536 33.1801 26.7656 30.8249L25.4877 27.7788L29.8395 25.2672Z" fill="#1A1C1E"/>
    <path d="M12.5244 15.6117C12.5244 15.6117 16.9246 18.0191 21.092 15.703C21.092 15.703 23.1515 22.699 23.1515 26.5925C23.1515 30.486 23.0593 32.1546 23.0593 32.1546L10.7898 32.1068C10.7898 32.1068 10.4605 27.7527 10.9786 22.8859C11.4968 18.0191 12.5244 15.6117 12.5244 15.6117Z" fill="#B287A3" stroke="#B287A3" stroke-width="0.357169"/>
    <path d="M13.3894 25.0412C13.3894 25.0412 16.3316 25.567 20.4112 25.0412" stroke="#E57061" stroke-width="0.357169"/>
    <path d="M13.3894 26.7272C13.3894 26.7272 16.3316 27.253 20.4112 26.7272" stroke="#E57061" stroke-width="0.357169"/>
    <path d="M13.3894 28.3741C13.3894 28.3741 16.3316 28.8998 20.4112 28.3741" stroke="#E57061" stroke-width="0.357169"/>
    <path d="M13.3894 29.9906C13.3894 29.9906 16.3316 30.5164 20.4112 29.9906" stroke="#E57061" stroke-width="0.357169"/>
    <path d="M13.3894 31.4984C13.3894 31.4984 16.3316 32.0242 20.4112 31.4984" stroke="#E57061" stroke-width="0.357169"/>
    <path d="M8.20326 27.7831L6.92537 30.8292C5.93731 33.1844 3.01266 34.0492 0.882848 32.6152C0.685237 32.4805 0.610584 32.2241 0.711585 32.0068L3.85141 25.2715L8.20326 27.7831Z" fill="#1A1C1E"/>
    <path d="M14.4609 4.92207L14.4389 4.94814V4.9829C14.4389 5.87805 14.3818 6.66457 14.1227 7.22512C13.9954 7.50322 13.8198 7.72484 13.5826 7.87258C13.3455 8.02467 13.0337 8.11158 12.6253 8.11158C11.8261 8.11158 11.1235 7.6162 10.6184 6.88618C10.1134 6.15616 9.81482 5.20452 9.81482 4.33544C9.81482 4.14424 9.90265 3.93567 10.0827 3.70971C10.2584 3.48375 10.5174 3.25344 10.838 3.02314C11.4792 2.56253 12.353 2.10626 13.2884 1.70649C14.2194 1.30671 15.2074 0.963425 16.0637 0.720084C16.9244 0.476742 17.6446 0.333344 18.053 0.333344C18.2682 0.333344 18.4219 0.333344 18.5229 0.342034C18.5493 0.34638 18.5712 0.34638 18.5888 0.350725C18.5756 0.368107 18.558 0.389834 18.5361 0.411561C18.4614 0.489777 18.3429 0.598413 18.1804 0.750501C17.5261 1.34582 16.2218 2.53645 14.4609 4.92207Z" fill="#1A1C1E" stroke="black" stroke-width="0.441203"/>
    <path d="M18.2025 4.92207L18.1805 4.94814V4.9829C18.1805 5.87805 18.1234 6.66457 17.8643 7.22512C17.737 7.50322 17.5613 7.72484 17.3242 7.87258C17.0871 8.02467 16.7753 8.11158 16.3669 8.11158C15.5677 8.11158 14.865 7.6162 14.36 6.88618C13.855 6.15616 13.5564 5.20452 13.5564 4.33544C13.5564 4.14424 13.6442 3.93567 13.8243 3.70971C13.9999 3.48375 14.259 3.25344 14.5796 3.02314C15.2207 2.56253 16.0946 2.10626 17.03 1.70649C17.9609 1.30671 18.949 0.963425 19.8053 0.720084C20.666 0.476742 21.3862 0.333344 21.7946 0.333344C22.0098 0.333344 22.1635 0.333344 22.2645 0.342034C22.2908 0.34638 22.3128 0.34638 22.3303 0.350725C22.3172 0.368107 22.2996 0.389834 22.2777 0.411561C22.203 0.489777 22.0844 0.598413 21.922 0.750501C21.272 1.34582 19.9634 2.53645 18.2025 4.92207Z" fill="#1A1C1E" stroke="black" stroke-width="0.441203"/>
    <path d="M7.49182 8.64603C7.49182 4.64828 11.0488 1.55871 15.0537 2.0845L15.8837 2.19313C16.4941 2.27135 17.1133 2.27135 17.7193 2.18444L18.0004 2.14533C21.9262 1.59347 25.4393 4.60917 25.4393 8.53305C25.4393 11.9442 22.7518 14.7687 19.309 14.9729L14.5795 15.2554C10.737 15.4813 7.49182 12.4569 7.49182 8.64603Z" fill="#1A1C1E"/>
    <path d="M8.14183 6.89048C8.44044 3.98342 12.0721 2.77541 14.1492 4.85685C15.5105 6.21695 17.7633 6.20826 19.0807 4.8047C21.0349 2.72326 24.5568 3.82699 24.9432 6.6428L25.3472 9.59331C25.637 11.7139 24.3679 13.7431 22.3215 14.4297L21.1842 14.8121C17.5262 16.0375 13.5388 15.868 10.0038 14.3341C8.50631 13.6867 7.60169 12.1527 7.76856 10.5449L8.14183 6.89048Z" fill="#FDFCFF" fill-opacity="0.96"/>
    <path d="M12.0062 4.4136H11.9667C11.2553 4.40057 10.5526 4.57004 9.92468 4.90029" stroke="black" stroke-width="0.502319" stroke-linecap="round"/>
    <path d="M23.5114 4.68307L23.4763 4.66569C22.8264 4.37455 22.115 4.25288 21.408 4.30937" stroke="black" stroke-width="0.502319" stroke-linecap="round"/>
    <path d="M15.3919 13.5086C16.1121 14.1082 17.1704 14.0691 17.8467 13.4217L18.602 12.7003C18.7294 12.5787 18.6152 12.3657 18.4396 12.4048L17.2627 12.6743C16.863 12.7655 16.4503 12.7829 16.0419 12.7264L14.7332 12.5396C14.5576 12.5135 14.461 12.7307 14.5927 12.8437L15.3919 13.5086Z" fill="#F09945"/>
    <path d="M15.3919 13.5086C16.1121 14.1082 17.1704 14.0691 17.8467 13.4217L18.602 12.7003C18.7294 12.5787 18.6152 12.3657 18.4396 12.4048L17.2627 12.6743C16.863 12.7655 16.4503 12.7829 16.0419 12.7264L14.7332 12.5396C14.5576 12.5135 14.461 12.7307 14.5927 12.8437L15.3919 13.5086Z" fill="black" fill-opacity="0.2"/>
    <path d="M15.3919 13.5086C16.1121 14.1082 17.1704 14.0691 17.8467 13.4217L18.602 12.7003C18.7294 12.5787 18.6152 12.3657 18.4396 12.4048L17.2627 12.6743C16.863 12.7655 16.4503 12.7829 16.0419 12.7264L14.7332 12.5396C14.5576 12.5135 14.461 12.7307 14.5927 12.8437L15.3919 13.5086Z" stroke="black" stroke-width="0.357169"/>
    <path d="M15.3919 13.5086C16.1121 14.1082 17.1704 14.0691 17.8467 13.4217L18.602 12.7003C18.7294 12.5787 18.6152 12.3657 18.4396 12.4048L17.2627 12.6743C16.863 12.7655 16.4503 12.7829 16.0419 12.7264L14.7332 12.5396C14.5576 12.5135 14.461 12.7307 14.5927 12.8437L15.3919 13.5086Z" stroke="black" stroke-opacity="0.2" stroke-width="0.357169"/>
    <path d="M16.0287 11.3358C16.3185 11.0577 16.7796 11.049 17.0782 11.3184C17.2495 11.4705 17.4295 11.6096 17.6227 11.7356L18.5844 12.3613C18.7206 12.4483 18.6723 12.6568 18.5142 12.6786L16.8806 12.9132C16.6566 12.9436 16.4327 12.9567 16.2043 12.9393L14.6146 12.8437C14.4522 12.835 14.3907 12.6308 14.518 12.5308L15.8135 11.5488L16.0287 11.3358Z" fill="#F09945"/>
    <path d="M16.0287 11.3358C16.3185 11.0577 16.7796 11.049 17.0782 11.3184C17.2495 11.4705 17.4295 11.6096 17.6227 11.7356L18.5844 12.3613C18.7206 12.4483 18.6723 12.6568 18.5142 12.6786L16.8806 12.9132C16.6566 12.9436 16.4327 12.9567 16.2043 12.9393L14.6146 12.8437C14.4522 12.835 14.3907 12.6308 14.518 12.5308L15.8135 11.5488L16.0287 11.3358Z" stroke="black" stroke-width="0.357169"/>
    <path d="M16.0287 11.3358C16.3185 11.0577 16.7796 11.049 17.0782 11.3184C17.2495 11.4705 17.4295 11.6096 17.6227 11.7356L18.5844 12.3613C18.7206 12.4483 18.6723 12.6568 18.5142 12.6786L16.8806 12.9132C16.6566 12.9436 16.4327 12.9567 16.2043 12.9393L14.6146 12.8437C14.4522 12.835 14.3907 12.6308 14.518 12.5308L15.8135 11.5488L16.0287 11.3358Z" stroke="black" stroke-opacity="0.2" stroke-width="0.357169"/>
    <path d="M17.2012 11.6444L17.4471 11.7965C17.5173 11.8399 17.5349 11.9268 17.4954 11.9963C17.4515 12.0659 17.3636 12.0833 17.2934 12.0441L17.0475 11.8921C16.9772 11.8486 16.9596 11.7617 16.9992 11.6922C17.0431 11.6226 17.1353 11.6009 17.2012 11.6444Z" fill="#FDFCFF"/>
    <path d="M11.2992 12.1354C12.6598 12.1354 13.7627 10.9039 13.7627 9.38478C13.7627 7.86565 12.6598 6.63416 11.2992 6.63416C9.9386 6.63416 8.83563 7.86565 8.83563 9.38478C8.83563 10.9039 9.9386 12.1354 11.2992 12.1354Z" fill="white"/>
    <path d="M11.3474 12.0094C12.5795 12.0094 13.5783 10.8635 13.5783 9.44996C13.5783 8.03643 12.5795 6.89053 11.3474 6.89053C10.1154 6.89053 9.11664 8.03643 9.11664 9.44996C9.11664 10.8635 10.1154 12.0094 11.3474 12.0094Z" fill="#70F8BA"/>
    <path d="M11.5495 10.9187C12.2868 10.9187 12.8845 10.2319 12.8845 9.38478C12.8845 8.53762 12.2868 7.85086 11.5495 7.85086C10.8122 7.85086 10.2145 8.53762 10.2145 9.38478C10.2145 10.2319 10.8122 10.9187 11.5495 10.9187Z" fill="black"/>
    <path d="M11.5495 10.9187C12.2868 10.9187 12.8845 10.2319 12.8845 9.38478C12.8845 8.53762 12.2868 7.85086 11.5495 7.85086C10.8122 7.85086 10.2145 8.53762 10.2145 9.38478C10.2145 10.2319 10.8122 10.9187 11.5495 10.9187Z" fill="black" fill-opacity="0.2"/>
    <path d="M11.9315 9.40651C12.3122 9.40651 12.6209 9.05827 12.6209 8.62869C12.6209 8.1991 12.3122 7.85086 11.9315 7.85086C11.5507 7.85086 11.242 8.1991 11.242 8.62869C11.242 9.05827 11.5507 9.40651 11.9315 9.40651Z" fill="#FDFCFF"/>
    <path d="M22.1018 12.1354C23.4624 12.1354 24.5654 10.9039 24.5654 9.38478C24.5654 7.86565 23.4624 6.63416 22.1018 6.63416C20.7412 6.63416 19.6382 7.86565 19.6382 9.38478C19.6382 10.9039 20.7412 12.1354 22.1018 12.1354Z" fill="white"/>
    <path d="M22.1502 12.0094C23.3823 12.0094 24.3811 10.8635 24.3811 9.44996C24.3811 8.03643 23.3823 6.89053 22.1502 6.89053C20.9182 6.89053 19.9194 8.03643 19.9194 9.44996C19.9194 10.8635 20.9182 12.0094 22.1502 12.0094Z" fill="#70F8BA"/>
    <path d="M22.3479 10.9187C23.0851 10.9187 23.6828 10.2319 23.6828 9.38478C23.6828 8.53762 23.0851 7.85086 22.3479 7.85086C21.6106 7.85086 21.0129 8.53762 21.0129 9.38478C21.0129 10.2319 21.6106 10.9187 22.3479 10.9187Z" fill="black"/>
    <path d="M22.3479 10.9187C23.0851 10.9187 23.6828 10.2319 23.6828 9.38478C23.6828 8.53762 23.0851 7.85086 22.3479 7.85086C21.6106 7.85086 21.0129 8.53762 21.0129 9.38478C21.0129 10.2319 21.6106 10.9187 22.3479 10.9187Z" fill="black" fill-opacity="0.2"/>
    <path d="M22.7342 9.40651C23.115 9.40651 23.4237 9.05827 23.4237 8.62869C23.4237 8.1991 23.115 7.85086 22.7342 7.85086C22.3535 7.85086 22.0448 8.1991 22.0448 8.62869C22.0448 9.05827 22.3535 9.40651 22.7342 9.40651Z" fill="#FDFCFF"/>
    <path d="M12.8142 11.7182C12.744 11.288 12.1599 10.9274 11.409 10.8492L11.3563 10.8448C10.5571 10.7579 9.80173 11.023 9.59534 11.4619C10.2628 12.2918 11.69 12.344 12.7659 11.7356L12.8186 11.7487L12.8142 11.7182Z" fill="#FDFCFF"/>
    <path d="M23.6915 11.8182C23.6213 11.388 23.0372 11.0273 22.2863 10.9491L22.2336 10.9448C21.4344 10.8579 20.6791 11.1229 20.4727 11.5618C21.1401 12.3918 22.5673 12.4439 23.6432 11.8356L23.6959 11.8486L23.6915 11.8182Z" fill="#FDFCFF"/>
    <path d="M8.17694 5.69553C9.50752 2.8971 13.5344 2.45387 16.3097 2.43649C18.5713 2.51471 20.9822 2.50602 23.0505 3.56629C23.7355 3.95738 24.2098 4.60484 24.5523 5.28271C24.0781 4.72651 23.5555 4.19202 22.8704 3.91827C20.7977 3.1839 18.4835 3.29253 16.3054 3.20997C13.5695 3.2317 9.95105 3.34468 8.17694 5.69553Z" fill="#B287A3"/>
    <path d="M13.3938 1.53263C13.1479 1.16328 12.5814 1.0503 11.9842 1.43269C11.7778 1.56305 11.5143 1.85419 11.4396 2.1323C11.4748 2.00628 11.5714 1.47615 11.5538 1.33709C11.4879 0.819993 11.04 0.450634 10.5526 0.511469C10.0651 0.572304 9.72699 1.04161 9.79725 1.55871C9.81921 1.72818 10.1442 2.09319 10.232 2.21921C10.153 2.14968 9.71822 1.97586 9.61721 1.92806C9.12977 1.70645 8.57206 1.87592 8.37445 2.30611C8.17245 2.73631 8.41397 3.20561 8.89702 3.42722C9.18685 3.55758 9.51182 3.57062 9.80604 3.46633C9.81043 3.47502 10.2144 3.35335 10.2188 3.36639C9.90704 3.47068 9.25711 3.77485 9.12537 4.11379C8.89702 4.69607 9.15611 5.33919 9.70503 5.54777C10.2496 5.75635 10.8556 5.45217 11.0268 4.84816C11.062 4.72214 11.1366 4.37886 11.1498 4.28326C11.1981 4.37017 11.365 4.63089 11.4835 4.7656C11.8524 5.1871 12.454 5.30008 12.8229 4.93507C13.1918 4.57006 13.0952 3.94432 12.6604 3.58366C12.4145 3.37942 12.2169 3.3012 12.0895 3.24906C12.3574 3.25341 12.757 3.07959 13.0161 2.91447C13.609 2.52773 13.6704 1.95414 13.3938 1.53263Z" fill="#D1D2F9"/>
    <path d="M10.9699 3.57496C11.2416 3.57496 11.4617 3.35706 11.4617 3.08828C11.4617 2.81949 11.2416 2.60159 10.9699 2.60159C10.6983 2.60159 10.4781 2.81949 10.4781 3.08828C10.4781 3.35706 10.6983 3.57496 10.9699 3.57496Z" fill="#A3BCF9"/>
    <path d="M17.1266 32.1894L17.1529 17.1152" stroke="#D1D2F9" stroke-width="0.357169"/>
    <path d="M15.5237 17.0631C15.5237 17.0631 15.1241 25.3411 15.5237 32.1981" stroke="#D1D2F9" stroke-width="0.357169"/>
    <path d="M13.7848 16.6416C13.7848 16.6416 13.3852 24.9195 13.7848 31.7765" stroke="#D1D2F9" stroke-width="0.357169"/>
    <path d="M18.6987 16.9848C18.6987 16.9848 19.0983 25.2628 18.6987 32.1198" stroke="#D1D2F9" stroke-width="0.357169"/>
    <path d="M20.1479 16.659C20.1479 16.659 20.5476 24.9369 20.1479 31.794" stroke="#D1D2F9" stroke-width="0.357169"/>
    <path d="M12.3444 17.7366C13.3456 18.5231 19.1993 19.0228 21.5706 17.7887" stroke="#D1D2F9" stroke-width="0.357169"/>
    <path d="M13.3895 20.1309C13.3895 20.1309 16.3317 20.6567 20.4113 20.1309" stroke="#D1D2F9" stroke-width="0.357169"/>
    <path d="M13.3895 21.7083C13.3895 21.7083 16.3317 22.2341 20.4113 21.7083" stroke="#D1D2F9" stroke-width="0.357169"/>
    <path d="M13.3895 23.3943C13.3895 23.3943 16.3317 23.9201 20.4113 23.3943" stroke="#D1D2F9" stroke-width="0.357169"/>
    <path d="M21.3906 16.1201C20.8637 16.3548 18.8568 17.1674 16.806 17.1413C14.7553 17.1152 12.4191 16.1201 12.4191 16.1201" stroke="#D1D2F9" stroke-width="0.357169"/>
    <path d="M27.0862 31.946L32.549 30.3122C32.549 30.3122 30.1777 25.6191 29.2994 23.781C28.4212 21.943 26.6207 18.7839 25.3824 17.7627C24.144 16.7415 21.4257 16.0419 21.3599 16.0289C20.8461 20.5568 18.8348 22.2515 17.03 24.598C15.3305 22.4036 12.16 20.1483 12.441 15.7204C12.3751 15.6204 9.45048 16.7937 8.3702 17.6584C7.41288 18.4232 4.6068 22.3514 3.88662 24.0852C3.16643 25.819 0.948792 30.4599 0.948792 30.4599L6.87713 31.8374C6.87713 31.8374 8.2692 27.8092 8.68199 26.9923C9.09477 26.1754 10.1004 24.0722 10.1004 24.0722C10.1004 24.0722 9.79301 25.6018 9.52074 27.5528C9.31435 29.0477 7.93545 36.8867 7.93545 36.8867C7.93545 36.8867 13.6574 38.7248 17.1354 38.6075C20.6133 38.4902 25.6414 37.117 25.6414 37.117C25.2857 35.5744 24.5568 28.9694 24.3284 27.7049C24.1308 26.6186 23.7356 24.4893 23.7356 24.4893C23.7356 24.4893 24.2494 25.4584 24.9739 26.6838C25.6985 27.9092 27.0862 31.946 27.0862 31.946Z" fill="white" stroke="#E6E6E6" stroke-width="0.357169"/>
    <path d="M12.3443 15.6986L9.32739 19.2184L11.8041 19.5225L9.87192 20.1352L17.447 25.6452L17.2143 38.6118" stroke="#E6E6E6" stroke-width="0.357169"/>
    <path d="M21.3906 16.081L23.7136 19.3705L21.6233 19.8311L23.6345 20.4394L16.986 25.3367" stroke="#E6E6E6" stroke-width="0.357169"/>
    <path d="M16.7138 26.8966C16.8496 26.8966 16.9597 26.7877 16.9597 26.6533C16.9597 26.5189 16.8496 26.4099 16.7138 26.4099C16.578 26.4099 16.4679 26.5189 16.4679 26.6533C16.4679 26.7877 16.578 26.8966 16.7138 26.8966Z" fill="white" stroke="#E6E6E6" stroke-width="0.357169"/>
    <path d="M16.5336 30.0775C16.6695 30.0775 16.7796 29.9686 16.7796 29.8342C16.7796 29.6998 16.6695 29.5908 16.5336 29.5908C16.3978 29.5908 16.2877 29.6998 16.2877 29.8342C16.2877 29.9686 16.3978 30.0775 16.5336 30.0775Z" fill="white" stroke="#E6E6E6" stroke-width="0.357169"/>
    <path d="M16.4809 33.4538C16.6167 33.4538 16.7268 33.3449 16.7268 33.2105C16.7268 33.0761 16.6167 32.9672 16.4809 32.9672C16.3451 32.9672 16.235 33.0761 16.235 33.2105C16.235 33.3449 16.3451 33.4538 16.4809 33.4538Z" fill="white" stroke="#E6E6E6" stroke-width="0.357169"/>
    <path d="M20.5297 25.8842C20.5297 25.8842 20.4507 23.894 20.1433 23.894C19.8359 23.894 19.9106 25.8842 19.9106 25.8842H20.5297Z" fill="#6FEDB7"/>
    <path d="M21.1491 25.8277C21.1491 25.8277 21.07 23.8375 20.7626 23.8375C20.4552 23.8375 20.5299 25.8277 20.5299 25.8277H21.1491Z" fill="#2E86AB"/>
    <path d="M21.7506 25.8277C21.7506 25.8277 21.6716 23.8375 21.3642 23.8375C21.0568 23.8375 21.1314 25.8277 21.1314 25.8277H21.7506Z" fill="#003257"/>
    <path d="M22.7079 25.7972L18.9577 25.9493C18.9577 25.9493 18.9972 27.9395 19.0367 28.7782C19.0763 29.6212 20.5079 30.3078 21.048 30.2686C21.5881 30.2295 22.8265 29.3518 22.787 28.7782C22.7431 28.2089 22.7079 25.7972 22.7079 25.7972Z" fill="white" stroke="#CCCCCC" stroke-width="0.357169"/>
    <path d="M21.6233 29.4257C21.6233 29.4257 21.5926 29.2823 21.4916 29.2692C21.3906 29.2562 21.1886 29.3692 21.3774 29.4908C21.5662 29.6125 21.3335 29.6125 21.4213 29.7211C21.5091 29.8298 21.6584 29.9036 21.6233 29.7211C21.597 29.5864 21.7067 29.6212 21.7463 29.543C21.8253 29.3952 21.6233 29.4257 21.6233 29.4257Z" fill="#51819E"/>
    <path d="M20.8768 29.7081C20.8768 29.7081 20.9295 29.8472 21.0349 29.8385C21.1359 29.8341 21.3159 29.6951 21.1095 29.6038C20.9032 29.5126 21.1359 29.4778 21.0305 29.3822C20.9251 29.2866 20.767 29.2388 20.8329 29.4126C20.8812 29.5387 20.767 29.5256 20.7407 29.6082C20.6792 29.769 20.8768 29.7081 20.8768 29.7081Z" fill="#7CCAE5"/>
    <path d="M20.2662 29.3822C20.2662 29.3822 20.1477 29.2953 20.0598 29.3562C19.9764 29.4126 19.9017 29.6299 20.1257 29.5952C20.3497 29.5604 20.174 29.7168 20.3145 29.7385C20.4551 29.7603 20.6132 29.7168 20.4638 29.6038C20.3541 29.5213 20.4594 29.4778 20.4331 29.3909C20.3936 29.2301 20.2662 29.3822 20.2662 29.3822Z" fill="#A4F7CF"/>
    <path d="M20.0775 27.3442C20.1405 27.3442 20.1917 26.8948 20.1917 26.3405C20.1917 25.7861 20.1405 25.3367 20.0775 25.3367C20.0144 25.3367 19.9633 25.7861 19.9633 26.3405C19.9633 26.8948 20.0144 27.3442 20.0775 27.3442Z" fill="#6FEDB7"/>
    <path d="M20.6002 27.4398C20.6632 27.4398 20.7144 26.9904 20.7144 26.436C20.7144 25.8817 20.6632 25.4323 20.6002 25.4323C20.5371 25.4323 20.486 25.8817 20.486 26.436C20.486 26.9904 20.5371 27.4398 20.6002 27.4398Z" fill="#2E86AB"/>
    <path d="M21.2193 27.2312C21.2823 27.2312 21.3335 26.7818 21.3335 26.2274C21.3335 25.6731 21.2823 25.2237 21.2193 25.2237C21.1562 25.2237 21.1051 25.6731 21.1051 26.2274C21.1051 26.7818 21.1562 27.2312 21.2193 27.2312Z" fill="#003257"/>
    <path opacity="0.5" d="M14.7113 9.43691C14.7201 11.4966 13.0338 13.1739 10.9523 13.1826C8.87081 13.1913 7.17575 11.5227 7.16697 9.46298C7.15818 7.40327 8.84447 5.72595 10.926 5.71726C13.0119 5.70857 14.7069 7.37285 14.7113 9.43691Z" fill="#CAEFEF"/>
    <path opacity="0.5" d="M26.0717 9.44129C26.0805 11.501 24.3986 13.174 22.3171 13.1827C20.2356 13.1914 18.5449 11.5271 18.5362 9.46736C18.5274 7.40765 20.2093 5.73468 22.2908 5.72599C24.3723 5.7173 26.0673 7.38157 26.0717 9.44129Z" fill="#CAEFEF"/>
    <path d="M26.1331 9.29789C26.1419 11.3576 24.46 13.0306 22.3785 13.0393C20.297 13.0479 18.6063 11.3837 18.5975 9.32396C18.5887 7.26425 20.2706 5.59127 22.3521 5.58258C24.4336 5.57389 26.1287 7.23818 26.1331 9.29789Z" stroke="#269989" stroke-width="1.9459"/>
    <path d="M14.7113 9.43691C14.7201 11.4966 13.0338 13.1739 10.9523 13.1826C8.87081 13.1913 7.17575 11.5227 7.16697 9.46298C7.15818 7.40327 8.84447 5.72595 10.926 5.71726C13.0119 5.70857 14.7069 7.37285 14.7113 9.43691Z" stroke="#269989" stroke-width="1.94816"/>
    <path d="M14.5268 10.0497C15.9145 9.64554 17.39 9.6325 18.7864 10.0149L18.8567 10.0323" stroke="#269989" stroke-width="1.82998"/>
    </svg>
    