<svg width="184" height="147" viewBox="0 0 184 147" fill="none" xmlns="http://www.w3.org/2000/svg">
    <path
        d="M173.641 67.5825C168.147 62.2587 161.012 59.0941 153.343 58.5256C152.761 51.0939 149.49 44.1802 143.996 38.8565C137.9 32.9593 129.805 29.7088 121.194 29.7088C120.955 29.7088 120.712 29.7088 120.462 29.7191C113.373 12.4495 96.0346 0.976746 76.7172 0.976746C51.4701 0.976746 30.7862 20.354 29.6917 44.5618C12.3686 49.0599 0 64.5283 0 82.0829C0 83.5165 0.0829978 84.9613 0.244165 86.3754C2.47737 106.07 19.6026 120.923 40.0827 120.923H60.7866V115.891H40.0827C22.2558 115.891 7.35209 102.964 5.40526 85.82C5.26532 84.5818 5.19197 83.324 5.19197 82.0813C5.19197 66.2163 16.7981 52.3071 32.7812 49.013L34.8378 48.5903V46.5526C34.8532 24.1913 53.6403 6.00071 76.717 6.00071C94.4871 6.00071 110.372 16.9092 116.244 33.151L116.909 34.9877L118.909 34.8268C119.677 34.766 120.446 34.7361 121.188 34.7361C128.412 34.7361 135.203 37.4631 140.318 42.4101C145.428 47.3618 148.238 53.9434 148.238 60.9468V63.4624H150.834C158.062 63.4624 164.855 66.1894 169.964 71.1363C175.074 76.0926 177.888 82.6742 177.888 89.6731C177.888 104.124 165.752 115.883 150.84 115.883H119.668V120.915H150.84C168.619 120.915 183.081 106.901 183.081 89.6731C183.081 81.3305 179.727 73.4856 173.641 67.5782L173.641 67.5825Z"
        fill="#0066FF" />
    <path
        d="M88.3957 88.0511L73.9387 102.06L77.6098 105.617L87.632 95.9056V146.326H92.8253V95.9056L102.847 105.617L106.519 102.06L92.0616 88.0511C91.0492 87.0702 89.4027 87.0702 88.3905 88.0511H88.3957Z"
        fill="#0066FF" />
</svg>
    